<svg width="326" height="59" viewBox="0 0 326 59" fill="none" xmlns="http://www.w3.org/2000/svg">
<path d="M0 23.5C0 16.8726 5.37258 11.5 12 11.5H24C30.6274 11.5 36 16.8726 36 23.5V35.5C36 42.1274 30.6274 47.5 24 47.5H12C5.37258 47.5 0 42.1274 0 35.5V23.5Z" fill="#8AB1F9"/>
<path d="M22.375 27.75H25M25 27.75H27.625M25 27.75V25.125M25 27.75V30.375" stroke="white" stroke-width="1.5" stroke-linecap="round" stroke-linejoin="round"/>
<path d="M8.375 36.5V35.625C8.375 32.2423 11.1173 29.5 14.5 29.5C17.8827 29.5 20.625 32.2423 20.625 35.625V36.5" stroke="white" stroke-width="1.5" stroke-linecap="round" stroke-linejoin="round"/>
<path d="M14.5 29.5C16.433 29.5 18 27.933 18 26C18 24.067 16.433 22.5 14.5 22.5C12.567 22.5 11 24.067 11 26C11 27.933 12.567 29.5 14.5 29.5Z" stroke="white" stroke-width="1.5" stroke-linecap="round" stroke-linejoin="round"/>
<path d="M60.125 12.3438V22.6562H58.6406V12.3438H60.125ZM60.5469 24.8281V26.0312H50.9688V21.7031H52.4688V24.8281H60.5469ZM53.7188 15.5938C53.7188 17.3438 55.0625 18.9688 57.2344 19.6094L56.5156 20.7812C54.875 20.2734 53.6406 19.2188 53.0156 17.8594C52.3828 19.3359 51.1484 20.4844 49.4844 21.0156L48.75 19.8594C50.9219 19.1719 52.2344 17.4531 52.2344 15.5938V15.3125H49.125V14.125H52.2344V12.3906H53.7344V14.125H56.8125V15.3125H53.7188V15.5938ZM73.1644 13.2031V14.4375C73.1644 15.7656 73.1644 17.2031 72.7738 19.2031H74.7894V20.4219H69.1175V26.3438H67.6175V20.4219H62.0238V19.2031H71.2738C71.6956 17.2109 71.6956 15.7422 71.6956 14.4375V14.4219H63.5863V13.2031H73.1644ZM91.8838 20.7656V21.9844H86.2275V26.3438H84.7588V21.9844H79.1181V20.7656H91.8838ZM90.665 14.0156V15.2188H86.2431C86.3291 16.7656 88.4384 18.2734 91.1025 18.6094L90.5713 19.7969C88.3213 19.4844 86.4072 18.4297 85.5088 17C84.5947 18.4453 82.665 19.4844 80.415 19.7969L79.8681 18.6094C82.5322 18.2734 84.6572 16.7969 84.7588 15.2188H80.3213V14.0156H84.7588V12.3281H86.2275V14.0156H90.665ZM97.5325 15.6562C97.5325 17.4219 98.845 19.0469 101.001 19.7188L100.283 20.8906C98.6731 20.3828 97.4544 19.3203 96.8294 17.9531C96.2044 19.4219 94.9934 20.5625 93.345 21.1094L92.6263 19.9531C94.7669 19.2656 96.0638 17.5469 96.0638 15.6562V15.3281H93.0169V14.125H96.0638V12.4219H97.5481V14.125H100.579V15.3281H97.5325V15.6562ZM104.298 12.3438V22.7656H102.814V17.7812H100.095V16.5781H102.814V12.3438H104.298ZM104.673 24.8281V26.0312H95.2044V21.8438H96.6888V24.8281H104.673Z" fill="#1D1F25"/>
<path d="M52.3711 43.0273V44.9375C53.373 44.8965 54.3984 44.8086 55.3594 44.668L55.4297 45.3477C53.0508 45.7812 50.4844 45.793 48.6094 45.793L48.4805 45.0312C49.3535 45.0254 50.3848 45.0195 51.4688 44.9844V43.0273H52.3711ZM54.8203 38.9023V39.6641H52.3711C52.3945 41.0117 53.5137 42.1074 55.0547 42.5469L54.6211 43.2734C53.3672 42.8984 52.3887 42.0957 51.9258 41.0352C51.4688 42.1543 50.4961 42.9863 49.2422 43.3672L48.7969 42.6641C50.3379 42.2129 51.4219 41.0703 51.4453 39.6641H49.0547V38.9023H51.4688V37.6133H52.3711V38.9023H54.8203ZM56.9648 37.5312V47.9727H56.0508V37.5312H56.9648ZM61.6702 40.4727C61.6702 42.1836 62.5022 43.9531 63.885 44.7031L63.3342 45.4297C62.3264 44.8496 61.6057 43.7891 61.2366 42.5352C60.844 43.9004 60.0705 45.0664 59.0334 45.6875L58.4358 45.0078C59.8889 44.1758 60.7795 42.3125 60.7795 40.5312V38.5156H61.6702V40.4727ZM67.4827 37.5312V47.9492H66.592V42.4883H65.1623V47.4219H64.2717V37.7539H65.1623V41.7266H66.592V37.5312H67.4827ZM76.77 37.5312V41.9727H78.4341V42.7461H76.77V47.9492H75.8442V37.5312H76.77ZM68.5552 45.1719C69.4048 45.1719 70.395 45.1719 71.4263 45.1367V43.9766C70.2134 43.8418 69.4223 43.1328 69.4341 42.1016C69.4223 40.9297 70.4184 40.168 71.895 40.168C73.3481 40.168 74.3559 40.9297 74.3677 42.1016C74.3559 43.1328 73.5532 43.8418 72.352 43.9883V45.1016C73.3247 45.0547 74.3032 44.9785 75.2114 44.8438L75.27 45.5469C72.9966 45.9336 70.5356 45.957 68.7075 45.957L68.5552 45.1719ZM75.0239 38.8086V39.5586H68.7427V38.8086H71.4263V37.5547H72.352V38.8086H75.0239ZM71.895 40.8828C70.9341 40.8828 70.2895 41.375 70.2895 42.1016C70.2895 42.8281 70.9341 43.2969 71.895 43.2852C72.8442 43.2969 73.4888 42.8281 73.4888 42.1016C73.4888 41.375 72.8442 40.8828 71.895 40.8828ZM80.5261 46.2148L79.612 49.4023H78.7448L79.3894 46.2148H80.5261ZM93.007 37.5312V47.9727H92.0812V37.5312H93.007ZM87.4641 38.3398C89.0109 38.3516 90.1242 39.7578 90.1242 41.9727C90.1242 44.1875 89.0109 45.5938 87.4641 45.5938C85.9055 45.5938 84.8039 44.1875 84.8039 41.9727C84.8039 39.7578 85.9055 38.3516 87.4641 38.3398ZM87.4641 39.1602C86.4211 39.1719 85.6945 40.2734 85.6945 41.9727C85.6945 43.6719 86.4211 44.7734 87.4641 44.7734C88.507 44.7734 89.2336 43.6719 89.2336 41.9727C89.2336 40.2734 88.507 39.1719 87.4641 39.1602ZM104.076 43.4727V44.2344H101.556V47.9492H100.63V44.2344H97.9584V47.9492H97.0092V44.2344H94.5366V43.4727H104.076ZM99.2827 37.9531C101.474 37.9531 102.951 38.832 102.951 40.2266C102.951 41.6094 101.474 42.4883 99.2827 42.4766C97.0913 42.4883 95.6147 41.6094 95.6147 40.2266C95.6147 38.832 97.0913 37.9531 99.2827 37.9531ZM99.2827 38.7031C97.6538 38.7031 96.5522 39.3008 96.5639 40.2266C96.5522 41.1523 97.6538 41.7383 99.2827 41.7383C100.9 41.7383 102.013 41.1523 102.013 40.2266C102.013 39.3008 100.9 38.7031 99.2827 38.7031ZM113.316 37.5312V43.7422H112.39V41.0117H110.293V40.25H112.39V37.5312H113.316ZM109.859 44.0703C112.027 44.0703 113.351 44.7734 113.351 46.0039C113.351 47.2344 112.027 47.9375 109.859 47.9492C107.691 47.9375 106.367 47.2344 106.367 46.0039C106.367 44.7734 107.691 44.0703 109.859 44.0703ZM109.859 44.7852C108.265 44.7852 107.269 45.2422 107.281 46.0039C107.269 46.7539 108.265 47.2109 109.859 47.2109C111.453 47.2109 112.437 46.7539 112.437 46.0039C112.437 45.2422 111.453 44.7852 109.859 44.7852ZM108.3 39.4414C108.3 40.8008 109.343 42.0898 110.867 42.6172L110.386 43.3555C109.215 42.9336 108.306 42.0605 107.867 40.9766C107.41 42.2012 106.443 43.1797 105.207 43.6484L104.726 42.9102C106.273 42.3477 107.375 40.9414 107.375 39.4531V39.0664H105.019V38.293H110.632V39.0664H108.3V39.4414Z" fill="#7A7F8A"/>
<path d="M303.93 34L303.916 33.0977L307.293 29.543C308.469 28.2988 309.029 27.6289 309.029 26.7129C309.029 25.7012 308.168 25.0312 307.061 25.0312C305.885 25.0312 305.133 25.7832 305.133 26.8906H303.971C303.957 25.1406 305.311 23.9648 307.102 23.9648C308.893 23.9648 310.178 25.168 310.178 26.7129C310.178 27.8203 309.658 28.6816 307.908 30.4863L305.639 32.8242V32.9062H310.355V34H303.93Z" fill="#535760"/>
<path d="M318.077 25.625C318.212 25.625 318.348 25.6701 318.438 25.8053L321.83 29.1851C322.057 29.4104 322.057 29.7259 321.83 29.9512L318.438 33.331C318.212 33.5563 317.896 33.5563 317.67 33.331C317.443 33.1057 317.443 32.7902 317.67 32.5649L320.745 29.5456L317.715 26.5263C317.489 26.301 317.489 25.9855 317.715 25.7602C317.805 25.6701 317.941 25.625 318.077 25.625Z" fill="#1D1F25"/>
</svg>
